<svg xmlns="http://www.w3.org/2000/svg" xmlns:xlink="http://www.w3.org/1999/xlink"><symbol id="detective" viewBox="0 0 36 31">
<path d="M18 9.75821C17.6119 9.75821 17.2969 10.0752 17.2969 10.4663C17.2969 10.8571 17.6119 11.1743 18 11.1743C18.3881 11.1743 18.7031 10.8571 18.7031 10.4663C18.7031 10.0752 18.3881 9.75821 18 9.75821Z" fill=""/>
<path d="M33.8906 14.0066H31.1548C29.7125 9.85946 27.6199 2.58774 23.8291 0.529671C21.9331 -0.498398 20.141 0.219618 19.4669 1.67833C19.1802 2.29844 18.6075 2.62453 18 2.62453C17.3842 2.62453 16.8162 2.29124 16.5331 1.67888C15.8829 0.269957 14.1336 -0.513887 12.3041 0.380314C8.45261 2.26386 6.29874 9.8282 4.84525 14.0066H2.10938C0.944 14.0066 0 14.9569 0 16.1308C0 17.3018 0.946198 18.2549 2.10938 18.2549H33.8906C35.056 18.2549 36 17.3043 36 16.1308C36 14.9594 35.0538 14.0066 33.8906 14.0066ZM7.31525 11.1743H15.1875C15.5759 11.1743 15.8906 10.8571 15.8906 10.4663C15.8906 10.0752 15.5759 9.75823 15.1875 9.75823H7.80688C9.92642 3.86225 11.9064 2.14908 12.9183 1.65427C14.0221 1.11493 14.9307 1.56631 15.2581 2.27603C15.7739 3.39178 16.8409 4.04065 18 4.04065C19.1618 4.04065 20.2275 3.38929 20.7419 2.27603C21.0789 1.54612 21.9922 1.14203 23.1619 1.77624C24.1784 2.32831 26.1524 4.09845 28.1928 9.75823H20.8125C20.4241 9.75823 20.1094 10.0752 20.1094 10.4663C20.1094 10.8574 20.4241 11.1743 20.8125 11.1743H28.685C29.0404 12.2066 29.4096 13.2717 29.665 14.0066H6.33527C6.58987 13.2736 6.95819 12.211 7.31525 11.1743ZM33.8906 16.8388H2.10938C1.72156 16.8388 1.40625 16.521 1.40625 16.1308C1.40625 15.7397 1.72101 15.4227 2.10938 15.4227H33.8906C34.2784 15.4227 34.5938 15.7402 34.5938 16.1308C34.5938 16.5216 34.2787 16.8388 33.8906 16.8388Z" fill=""/>
<path d="M16.5938 21.0873H5.34375C4.95538 21.0873 4.64062 21.4042 4.64062 21.7953V24.6275C4.64062 28.1413 7.47949 31.0001 10.9688 31.0001C13.6126 31.0001 15.9527 29.3624 16.8835 26.8953C17.5905 26.5706 18.4095 26.5706 19.1165 26.8953C20.0473 29.3624 22.3874 30.9998 25.0312 30.9998C28.5205 30.9998 31.3594 28.1413 31.3594 24.6273V21.795C31.3594 21.4039 31.0446 21.087 30.6562 21.087H19.4062C19.0179 21.087 18.7031 21.4039 18.7031 21.795V22.5031H17.2969V21.795C17.2969 21.4042 16.9821 21.0873 16.5938 21.0873ZM10.9688 29.584C8.25485 29.584 6.04688 27.3605 6.04688 24.6275V22.5034H15.8906V24.6275C15.8906 27.3677 13.6945 29.584 10.9688 29.584ZM20.1094 22.5034H29.9531V24.6275C29.9531 27.3605 27.7451 29.584 25.0312 29.584C22.2987 29.584 20.1094 27.361 20.1094 24.6275V22.5034ZM18.7031 23.9195V24.6275C18.7031 24.8538 18.716 25.0792 18.7394 25.303C18.2508 25.2131 17.7492 25.2131 17.2606 25.303C17.284 25.0792 17.2969 24.8538 17.2969 24.6275V23.9195H18.7031Z" fill=""/>
<path d="M10.9688 26.7516C9.80557 26.7516 8.85938 25.7985 8.85938 24.6274C8.85938 24.2363 8.54462 23.9194 8.15625 23.9194C7.76788 23.9194 7.45312 24.2363 7.45312 24.6274C7.45312 26.5793 9.03021 28.1677 10.9688 28.1677C11.3571 28.1677 11.6719 27.8505 11.6719 27.4597C11.6719 27.0686 11.3571 26.7516 10.9688 26.7516Z" fill=""/>
<path d="M25.0312 28.1677C26.9698 28.1677 28.5469 26.5793 28.5469 24.6274C28.5469 24.2363 28.2321 23.9194 27.8438 23.9194C27.4554 23.9194 27.1406 24.2363 27.1406 24.6274C27.1406 25.7985 26.1944 26.7516 25.0312 26.7516C24.6429 26.7516 24.3281 27.0686 24.3281 27.4597C24.3281 27.8505 24.6429 28.1677 25.0312 28.1677Z" fill=""/>
</symbol><symbol id="hired" viewBox="0 0 35 35">
<path d="M31.2638 27.8931C31.639 27.3746 31.8609 26.7384 31.8609 26.0511V21.9434C31.8609 21.5658 31.5548 21.2598 31.1773 21.2598H28.1222C26.7099 21.2598 25.5609 22.4087 25.5609 23.8211V26.0511C25.5609 26.738 25.7826 27.3738 26.1573 27.8921C25.69 27.9679 25.2404 28.1176 24.8211 28.3367C23.8713 26.9195 22.3152 25.9421 20.5271 25.7772C20.5201 25.7752 20.513 25.7738 20.506 25.7721C21.1457 25.0577 21.5357 24.1151 21.5357 23.0829V17.5C21.5357 17.1225 21.2296 16.8164 20.8521 16.8164H16.6999C14.9157 16.8164 13.4643 18.2679 13.4643 20.052V23.0828C13.4643 24.1151 13.8543 25.0576 14.494 25.772C14.487 25.7737 14.4799 25.7752 14.4729 25.7772C12.6846 25.942 11.1284 26.9196 10.1787 28.337C9.75926 28.1179 9.30959 27.9681 8.84249 27.8923C9.21724 27.374 9.43906 26.7381 9.43906 26.0511V21.9434C9.43906 21.5658 9.13295 21.2598 8.75547 21.2598H5.70035C4.28805 21.2598 3.13906 22.4087 3.13906 23.8211V26.0511C3.13906 26.7385 3.36103 27.3746 3.73618 27.8931C1.62025 28.2389 0 30.0791 0 32.2913V34.3164C0 34.694 0.306113 35 0.683594 35H34.3164C34.6939 35 35 34.694 35 34.3164V32.2913C35 30.0791 33.3797 28.2389 31.2638 27.8931ZM4.50625 23.8211C4.50625 23.1626 5.04191 22.627 5.70035 22.627H8.07188V23.4595C8.07188 23.8677 7.73979 24.1998 7.33161 24.1998H4.50625V23.8211ZM4.50625 25.567H7.33161C7.59206 25.567 7.84144 25.5192 8.07188 25.4324V26.0511C8.07188 27.0341 7.27214 27.8339 6.28906 27.8339C5.30599 27.8339 4.50625 27.0341 4.50625 26.0511V25.567ZM6.72978 29.2011L6.28906 29.6418L5.84835 29.2011H6.72978ZM9.19789 31.564V33.6328H1.36719V32.2913C1.36719 30.758 2.48985 29.4826 3.95616 29.2424L5.80569 31.0919C5.93394 31.2201 6.10777 31.2921 6.28906 31.2921C6.47035 31.2921 6.64419 31.2201 6.77243 31.0919L8.62251 29.2417C8.94927 29.2949 9.26352 29.4003 9.55637 29.5544C9.32477 30.1809 9.19789 30.8579 9.19789 31.564ZM17.5001 25.7515C16.0286 25.7515 14.8315 24.5543 14.8315 23.0829V22.1794H18.917C19.37 22.1794 19.7965 22.0637 20.1686 21.8604V23.0829C20.1686 24.5543 18.9715 25.7515 17.5001 25.7515ZM18.6916 27.1186L17.5 28.3102L16.3084 27.1186H18.6916ZM14.8314 20.052H14.8315C14.8315 19.0217 15.6696 18.1836 16.6999 18.1836H20.1685V19.5606C20.1685 20.2508 19.607 20.8123 18.9169 20.8123H14.8314V20.052ZM24.4349 33.6328H23.1055H11.8945H10.5651V32.2656H15.0163C15.3938 32.2656 15.6999 31.9596 15.6999 31.582C15.6999 31.2045 15.3938 30.8984 15.0163 30.8984H10.6151C10.9081 28.9556 12.4633 27.422 14.4158 27.1595L17.0166 29.7603C17.1501 29.8938 17.3251 29.9605 17.5 29.9605C17.6749 29.9605 17.8499 29.8938 17.9834 29.7603L20.5842 27.1595C22.755 27.4513 24.4349 29.3146 24.4349 31.564V33.6328ZM26.9281 23.8211C26.9281 23.1626 27.4638 22.627 28.1222 22.627H30.4937V23.4595C30.4937 23.8677 30.1617 24.1998 29.7535 24.1998H26.9281V23.8211ZM26.9281 25.567H29.7535C30.0139 25.567 30.2633 25.5192 30.4937 25.4324V26.0511C30.4937 27.0341 29.694 27.8339 28.7109 27.8339C27.7279 27.8339 26.9281 27.0341 26.9281 26.0511V25.567ZM29.1516 29.2011L28.7109 29.6418L28.2702 29.2011H29.1516ZM25.802 33.6328V31.564C25.802 30.8578 25.6752 30.1809 25.4435 29.5542C25.7362 29.4 26.0504 29.2947 26.3772 29.2416L28.2275 31.0919C28.3557 31.2201 28.5296 31.2921 28.7109 31.2921C28.8922 31.2921 29.066 31.2201 29.1942 31.0919L31.0438 29.2424C32.5101 29.4826 33.6327 30.758 33.6327 32.2913V33.6328H25.802Z" fill=""/>
<path d="M20.8689 4.4665C20.6019 4.19956 20.1692 4.19956 19.9021 4.4665L16.5477 7.82097L15.0976 6.37086C14.8306 6.10385 14.3979 6.10385 14.1309 6.37079C13.8639 6.63773 13.8639 7.07059 14.1309 7.3376L16.0643 9.27107C16.1926 9.39925 16.3664 9.4713 16.5477 9.4713C16.729 9.4713 16.9028 9.39925 17.0311 9.27107L20.8689 5.43324C21.1359 5.1663 21.1359 4.73345 20.8689 4.4665Z" fill=""/>
<path d="M20.295 0.592814C19.9503 0.439074 19.5461 0.593908 19.3923 0.938712C19.2385 1.28352 19.3934 1.68773 19.7382 1.84147C21.7205 2.72556 23.0015 4.69889 23.0015 6.86875C23.0015 9.90227 20.5335 12.3702 17.5 12.3702C14.4664 12.3702 11.9985 9.90227 11.9985 6.86875C11.9985 4.7101 13.2702 2.74087 15.2382 1.85199C15.5823 1.69661 15.7353 1.29165 15.5798 0.947599C15.4244 0.603478 15.0193 0.450558 14.6755 0.605939C12.2188 1.71555 10.6313 4.17382 10.6313 6.86868C10.6313 10.6561 13.7126 13.7374 17.5 13.7374C21.2873 13.7374 24.3686 10.6561 24.3686 6.86875C24.3686 4.15987 22.7696 1.69641 20.295 0.592814Z" fill=""/>
<path d="M17.5245 0H17.5C17.1225 0 16.8164 0.306045 16.8164 0.683594C16.8164 1.06114 17.1225 1.36719 17.5 1.36719H17.518C17.5191 1.36719 17.5202 1.36719 17.5213 1.36719C17.8974 1.36719 18.2031 1.06326 18.2049 0.686807C18.2066 0.309258 17.902 0.00177734 17.5245 0Z" fill=""/>
<path d="M17.9832 31.0987C17.8562 30.9716 17.6798 30.8984 17.5 30.8984C17.3202 30.8984 17.1438 30.9716 17.0167 31.0987C16.8896 31.2259 16.8164 31.4022 16.8164 31.582C16.8164 31.7618 16.8895 31.9382 17.0167 32.0653C17.1439 32.1925 17.3202 32.2656 17.5 32.2656C17.6798 32.2656 17.8562 32.1925 17.9832 32.0653C18.1104 31.9382 18.1836 31.7618 18.1836 31.582C18.1836 31.4022 18.1104 31.2259 17.9832 31.0987Z" fill=""/>
</symbol><symbol id="logo-big">
<symbol id="logo" viewBox="0 0 202 52">
<path d="M76.9355 24.3369c0-.7243-.1871-1.2695-.5615-1.6357-.3662-.3744-1.0376-.7609-2.0141-1.1597-1.7823-.6755-3.064-1.4648-3.8453-2.3682-.7812-.9114-1.1718-1.9856-1.1718-3.2226 0-1.4974.5289-2.6978 1.5869-3.6011 1.0661-.9114 2.417-1.3672 4.0527-1.3672 1.0905 0 2.063.232 2.9175.6958.8545.4558 1.5096 1.1027 1.9653 1.9409.4639.8383.6958 1.7904.6958 2.8565h-3.5766c0-.8301-.1791-1.4608-.5371-1.8921-.35-.4395-.8586-.6592-1.5259-.6592-.6266 0-1.1149.1872-1.4649.5615-.3499.3663-.5249.8627-.5249 1.4893 0 .4883.1954.9318.586 1.3306.3906.3906 1.0823.7975 2.0752 1.2207 1.7334.6266 2.9907 1.3956 3.7719 2.3071.7894.9115 1.1841 2.0711 1.1841 3.479 0 1.5462-.4923 2.7547-1.477 3.6255-.9847.8708-2.3234 1.3061-4.0161 1.3061-1.1475 0-2.1932-.236-3.1372-.708-.9441-.472-1.6846-1.1474-2.2217-2.0263-.529-.8789-.7935-1.9165-.7935-3.1128h3.6011c0 1.0254.1994 1.77.5981 2.2339.3988.4638 1.0498.6958 1.9532.6958 1.2532 0 1.8798-.6633 1.8798-1.9898zm9.0699-8.5449l.0976 1.2207c.7731-.9766 1.7945-1.4648 3.064-1.4648 1.3184 0 2.2502.594 2.7954 1.7822.7568-1.1882 1.8351-1.7822 3.2349-1.7822 2.3112 0 3.4952 1.5991 3.5522 4.7973V29h-3.4546v-8.4351c0-.7649-.1058-1.3102-.3174-1.6357-.2115-.3255-.5696-.4883-1.0742-.4883-.6429 0-1.123.3947-1.4404 1.1841l.0244.415V29h-3.4546v-8.4106c0-.7569-.1017-1.3021-.3052-1.6358-.2034-.3418-.5656-.5127-1.0864-.5127-.5941 0-1.0661.3215-1.416.9644V29h-3.4546V15.792h3.2349zM107.587 29c-.097-.2035-.195-.5452-.293-1.0254-.618.8464-1.456 1.2695-2.514 1.2695-1.107 0-2.027-.3662-2.759-1.0986-.724-.7324-1.086-1.6805-1.086-2.8442 0-1.3835.439-2.4536 1.318-3.2105.887-.7568 2.161-1.1434 3.821-1.1596h1.05v-1.0621c0-.594-.102-1.0131-.306-1.2573-.203-.2441-.5-.3662-.891-.3662-.862 0-1.294.5046-1.294 1.5137h-3.454c0-1.2207.455-2.2258 1.367-3.0152.919-.7975 2.079-1.1962 3.479-1.1962 1.448 0 2.567.3784 3.357 1.1352.797.7487 1.196 1.8229 1.196 3.2227v6.2133c.016 1.1394.179 2.0305.488 2.6734V29h-3.479zm-2.038-2.4658c.382 0 .708-.0773.976-.232.269-.1546.468-.3377.599-.5493v-2.7466h-.831c-.585 0-1.049.1872-1.391.5616-.334.3743-.501.8748-.501 1.5014 0 .9766.383 1.4649 1.148 1.4649zm14.05-7.4097l-1.147-.0976c-.944 0-1.583.415-1.917 1.2451V29h-3.467V15.792h3.26l.097 1.4282c.546-1.1149 1.298-1.6723 2.259-1.6723.39 0 .708.0528.952.1586l-.037 3.418zm6.409-6.5796v3.2471h1.77v2.6001h-1.77v6.5552c0 .5208.069.8789.207 1.0742.147.1953.424.293.83.293.334 0 .607-.0285.818-.0855l-.024 2.6856c-.586.2197-1.221.3295-1.904.3295-2.23 0-3.357-1.2776-3.382-3.833v-7.019h-1.526V15.792h1.526v-3.2471h3.455zM135.615 29V11.2266h4.699c2.076 0 3.728.6591 4.957 1.9775 1.236 1.3184 1.867 3.125 1.892 5.4199v2.8809c0 2.3356-.619 4.1707-1.856 5.5054-1.229 1.3265-2.925 1.9897-5.09 1.9897h-4.602zm3.589-14.7827v11.8042h1.074c1.196 0 2.038-.3133 2.527-.94.488-.6347.744-1.7252.769-3.2714v-3.0884c0-1.6602-.232-2.8158-.696-3.4668-.464-.6592-1.253-1.0051-2.368-1.0376h-1.306zm15.71 15.0268c-1.774 0-3.157-.5289-4.15-1.5869-.993-1.0579-1.49-2.5716-1.49-4.541v-1.0498c0-2.0833.456-3.6906 1.368-4.8218.911-1.1312 2.217-1.6967 3.918-1.6967 1.66 0 2.909.533 3.748 1.5991.838 1.0579 1.265 2.6286 1.281 4.7119v1.6968h-6.872c.049.9765.264 1.6927.647 2.1484.382.4476.972.6714 1.77.6714 1.155 0 2.12-.3947 2.893-1.1841l1.355 2.0874c-.423.5859-1.038 1.062-1.843 1.4282-.806.3581-1.681.5371-2.625.5371zm-2.173-8.1054h3.455v-.3174c-.016-.7894-.147-1.3875-.391-1.7944-.244-.4069-.667-.6104-1.269-.6104-.603 0-1.042.2157-1.319.647-.268.4313-.427 1.123-.476 2.0752zm12.964 2.9785l1.672-8.3252h3.602L167.353 29h-3.296l-3.638-13.208h3.614l1.672 8.3252zM176.228 29h-3.467V15.792h3.467V29zm-3.626-16.626c0-.5371.171-.9765.513-1.3183.342-.3418.797-.5127 1.367-.5127s1.025.1709 1.367.5127c.342.3418.513.7812.513 1.3183 0 .529-.171.9684-.513 1.3184-.334.3499-.789.5249-1.367.5249s-1.038-.175-1.379-.5249c-.334-.35-.501-.7894-.501-1.3184zm11.072 14.0015c1.001 0 1.509-.6511 1.526-1.9531h3.247c-.016 1.4404-.46 2.6041-1.331 3.4912-.871.887-1.994 1.3305-3.369 1.3305-1.701 0-2.999-.5289-3.894-1.5869-.895-1.0579-1.351-2.6163-1.367-4.6753v-1.0498c0-2.0752.439-3.658 1.318-4.7485.887-1.0905 2.193-1.6357 3.919-1.6357 1.456 0 2.604.4516 3.442 1.3549.838.8952 1.266 2.1688 1.282 3.8208H185.2c-.008-.7405-.131-1.3102-.367-1.709-.236-.3987-.626-.5981-1.171-.5981-.603 0-1.034.2157-1.294.647-.261.4232-.399 1.2492-.415 2.478v1.3428c0 1.0742.053 1.827.158 2.2583.106.4232.281.7365.525.9399.244.1953.59.293 1.038.293zm12.06 2.8686c-1.774 0-3.157-.5289-4.15-1.5869-.993-1.0579-1.489-2.5716-1.489-4.541v-1.0498c0-2.0833.455-3.6906 1.367-4.8218.911-1.1312 2.218-1.6967 3.918-1.6967 1.661 0 2.91.533 3.748 1.5991.838 1.0579 1.265 2.6286 1.282 4.7119v1.6968h-6.873c.049.9765.265 1.6927.647 2.1484.383.4476.973.6714 1.77.6714 1.156 0 2.12-.3947 2.893-1.1841l1.355 2.0874c-.423.5859-1.037 1.062-1.843 1.4282-.806.3581-1.681.5371-2.625.5371zm-2.172-8.1054h3.454v-.3174c-.016-.7894-.146-1.3875-.391-1.7944-.244-.4069-.667-.6104-1.269-.6104-.602 0-1.042.2157-1.318.647-.269.4313-.428 1.123-.476 2.0752z" fill="#fff"/>
<path d="M70.9473 44.9609l1.289-4.3007h1.5176l-2.5195 7.3007c-.3867 1.0664-1.043 1.5996-1.9688 1.5996-.207 0-.4355-.0351-.6855-.1054v-1.1016l.2695.0176c.3594 0 .6289-.0664.8086-.1992.1836-.1289.3281-.3477.4336-.6563l.2051-.5449-2.2266-6.3105h1.5352l1.3418 4.3007zm7.3945.2871l1.875-4.5878h1.7812V47h-1.4238v-4.1953L78.8281 47h-.9668l-1.7519-4.2188V47h-1.4239v-6.3398h1.793l1.8633 4.5878zM88.9707 47h-1.4238v-2.5605h-2.4668V47h-1.4239v-6.3398h1.4239v2.6425h2.4668v-2.6425h1.4238V47zm3.0527-4.3242h1.3946c.5195 0 .9726.0898 1.3593.2695.3868.1797.6797.4317.8789.7559.2032.3242.3047.7011.3047 1.1308 0 .6524-.2304 1.1758-.6914 1.5703-.4609.3946-1.0742.5938-1.8398.5977h-2.8301v-6.3398h1.4238v2.0156zM98.4395 47h-1.4239v-6.3398h1.4239V47zm-6.4161-3.1816v2.0449h1.3887c.3477 0 .6211-.086.8203-.2578.2031-.1758.3047-.4239.3047-.7442s-.0996-.5722-.2988-.7558c-.1953-.1875-.461-.2832-.7969-.2871h-1.418zm10.9156 3.2988c-.902 0-1.634-.2832-2.197-.8496-.558-.5703-.8377-1.3281-.8377-2.2735v-.1757c0-.6329.1207-1.1973.3637-1.6934.246-.5.589-.8887 1.031-1.166.441-.2774.933-.416 1.476-.416.864 0 1.53.2754 1.998.8261.473.5508.709 1.3301.709 2.3379v.5742h-4.142c.043.5235.217.9376.521 1.2422.309.3047.696.4571 1.16.4571.653 0 1.184-.2637 1.594-.791l.768.7324c-.254.3789-.594.6738-1.02.8847-.422.2071-.896.3106-1.424.3106zm-.169-5.4317c-.391 0-.708.1368-.95.4102-.238.2734-.39.6543-.457 1.1426h2.713v-.1055c-.031-.4766-.158-.8359-.381-1.0781-.222-.2461-.531-.3692-.925-.3692zm11.8.1055h-2.056V47h-1.424v-5.209h-2.033v-1.1308h5.513v1.1308zm3.369 5.3262c-.902 0-1.634-.2832-2.197-.8496-.558-.5703-.838-1.3281-.838-2.2735v-.1757c0-.6329.121-1.1973.364-1.6934.246-.5.589-.8887 1.031-1.166.441-.2774.933-.416 1.476-.416.864 0 1.53.2754 1.998.8261.473.5508.709 1.3301.709 2.3379v.5742h-4.142c.043.5235.217.9376.521 1.2422.309.3047.696.4571 1.16.4571.653 0 1.184-.2637 1.594-.791l.768.7324c-.254.3789-.594.6738-1.02.8847-.422.2071-.896.3106-1.424.3106zm-.169-5.4317c-.391 0-.708.1368-.95.4102-.238.2734-.39.6543-.457 1.1426h2.713v-.1055c-.031-.4766-.158-.8359-.381-1.0781-.222-.2461-.531-.3692-.925-.3692zm6.099 1.0606l1.207-2.0859h1.582l-1.939 3.123L126.723 47h-1.571l-1.265-2.168-1.26 2.168h-1.582l2.004-3.2168-1.934-3.123h1.571l1.183 2.0859zM132.998 47h-1.424v-2.5605h-2.467V47h-1.423v-6.3398h1.423v2.6425h2.467v-2.6425h1.424V47zm1.254-3.2285c0-.6211.123-1.1797.369-1.6758.246-.5.592-.8828 1.037-1.1484.446-.2696.957-.4043 1.535-.4043.856 0 1.549.2754 2.08.8261.536.5508.825 1.2813.868 2.1914l.005.334c0 .625-.121 1.1836-.363 1.6758-.238.4922-.582.8731-1.031 1.1426-.445.2695-.961.4043-1.547.4043-.894 0-1.611-.2969-2.15-.8906-.535-.5977-.803-1.3926-.803-2.3848v-.0703zm1.424.123c0 .6524.135 1.1641.404 1.5352.27.3672.645.5508 1.125.5508.481 0 .854-.1875 1.119-.5625.27-.375.405-.9239.405-1.6465 0-.6406-.139-1.1485-.417-1.5235-.273-.375-.646-.5625-1.119-.5625-.464 0-.834.1856-1.107.5567-.274.3672-.41.918-.41 1.6523zm10.969-3.2343V47h-1.424v-5.1914h-1.793l-.117 2.209c-.075 1.0625-.28 1.8262-.616 2.291-.332.4609-.841.6914-1.529.6914h-.439l-.006-1.1836.293-.0293c.312-.043.539-.2324.679-.5683.145-.3399.237-.9571.276-1.8516l.117-2.707h4.559zm1.248 3.1113c0-.6211.123-1.1797.369-1.6758.246-.5.592-.8828 1.037-1.1484.445-.2696.957-.4043 1.535-.4043.855 0 1.549.2754 2.08.8261.535.5508.824 1.2813.867 2.1914l.006.334c0 .625-.121 1.1836-.363 1.6758-.238.4922-.582.8731-1.031 1.1426-.446.2695-.961.4043-1.547.4043-.895 0-1.612-.2969-2.151-.8906-.535-.5977-.802-1.3926-.802-2.3848v-.0703zm1.423.123c0 .6524.135 1.1641.405 1.5352.269.3672.644.5508 1.125.5508.48 0 .853-.1875 1.119-.5625.269-.375.404-.9239.404-1.6465 0-.6406-.139-1.1485-.416-1.5235-.273-.375-.646-.5625-1.119-.5625-.465 0-.834.1856-1.107.5567-.274.3672-.411.918-.411 1.6523zm9.897-2.0859h-2.754V47h-1.418v-6.3398h4.172v1.1484zm4.764-1.1484h1.418V47h-1.418v-4.2305L161.492 47h-1.418v-6.3398h1.418v4.2304l2.485-4.2304zm6.89 0h1.418V47h-1.418v-4.2305L168.383 47h-1.418v-6.3398h1.418v4.2304l2.484-4.2304z" fill="#788891"/>
<path d="M32.0665 13.8665c1.1284 0 2.0818.7271 2.4406 1.7333h8.9856c.3588-1.0062 1.3121-1.7333 2.4405-1.7333 1.4335 0 2.6 1.1665 2.6 2.5999 0 1.4335-1.1665 2.6-2.6 2.6-1.1284 0-2.0817-.7272-2.4405-1.7333h-8.9865c-.3588 1.0061-1.3121 1.7333-2.4405 1.7333-1.4335 0-2.6-1.1665-2.6-2.6 0-1.4334 1.1674-2.5999 2.6008-2.5999zm13.8667 3.4666c.4775 0 .8667-.3883.8667-.8667 0-.4784-.3892-.8666-.8667-.8666-.4775 0-.8667.3882-.8667.8666 0 .4784.3892.8667.8667.8667zm-13.8667 0c.4776 0 .8667-.3883.8667-.8667 0-.4784-.3891-.8666-.8667-.8666-.4775 0-.8666.3882-.8666.8666 0 .4784.3891.8667.8666.8667z" fill="#00B2FF"/>
<path d="M25.1333 19.2259v-5.3594c0-.2305.091-.4507.2539-.6127l3.4667-3.46664c.162-.16293.383-.25393.6127-.25393h2.7595c.3588-1.00618 1.3121-1.7333 2.4405-1.7333 1.4335 0 2.6 1.16651 2.6 2.59997 0 1.4334-1.1665 2.5999-2.6 2.5999-1.1284 0-2.0817-.7271-2.4405-1.7333h-2.4007l-2.9588 2.9588v5.0006c1.0062.3588 1.7333 1.3121 1.7333 2.4405 0 1.4334-1.1665 2.5999-2.6 2.5999-1.4334 0-2.6-1.1665-2.6-2.5999 0-1.1284.7272-2.0817 1.7334-2.4405zm9.5333-7.9594c.4775 0 .8667-.3882.8667-.8666 0-.47841-.3892-.86667-.8667-.86667-.4775 0-.8667.38826-.8667.86667 0 .4784.3892.8666.8667.8666zM25.9999 22.533c.4776 0 .8667-.3882.8667-.8666 0-.4784-.3891-.8667-.8667-.8667-.4775 0-.8666.3883-.8666.8667 0 .4784.3891.8666.8666.8666zM9.53333 22.533c.4004 0 .77477.0979 1.11367.2608l1.4863-1.4863v-8.3077c0-.2305.091-.4507.254-.6127l8.6736-8.6735c-.163-.33886-.2609-.71325-.2609-1.11364C20.8 1.16651 21.9665 0 23.4 0S26 1.16651 26 2.59996c0 1.43344-1.1665 2.59995-2.6 2.59995-.4004 0-.7748-.09793-1.1137-.26086l-8.4196 8.41955v8.3077c0 .2305-.091.4507-.254.6127l-1.7402 1.7403c.1629.3388.2608.7132.2608 1.1136 0 1.4335-1.1665 2.6-2.59997 2.6-1.43347 0-2.6-1.1665-2.6-2.6 0-1.4334 1.16653-2.5999 2.6-2.5999zM23.4 3.46661c.4775 0 .8667-.38826.8667-.86665 0-.4784-.3892-.86666-.8667-.86666-.4775 0-.8667.38826-.8667.86666 0 .47839.3892.86665.8667.86665zM9.53333 25.9996c.47757 0 .86667-.3883.86667-.8667 0-.4784-.3891-.8666-.86667-.8666-.47753 0-.86666.3882-.86666.8666 0 .4784.38913.8667.86666.8667zM1.73353 12.2926V8.66652c0-.23053.091-.45066.25393-.61272l6.06667-6.06657c.16206-.16293.38306-.25393.61273-.25393h4.49284C13.5185.72712 14.4718 0 15.6002 0c1.4335 0 2.6 1.16651 2.6 2.59996 0 1.43344-1.1665 2.59995-2.6 2.59995-1.1284 0-2.0817-.72712-2.4405-1.7333H9.02566l-5.5588 5.55871v3.26728c1.0062.3588 1.73334 1.3121 1.73334 2.4405 0 1.4334-1.16654 2.5999-2.60001 2.5999-1.43346 0-2.6-1.1665-2.6-2.5999 0-1.1284.72714-2.0817 1.73334-2.4405zM15.6002 3.46661c.4775 0 .8667-.38826.8667-.86665 0-.4784-.3892-.86666-.8667-.86666-.4775 0-.8667.38826-.8667.86666 0 .47839.3892.86665.8667.86665zM2.60019 15.5997c.47754 0 .86667-.3882.86667-.8666 0-.4784-.38913-.8667-.86667-.8667-.47753 0-.86666.3883-.86666.8667 0 .4784.38913.8666.86666.8666zM13.866 46.9595V34.5066c-1.0053-.3588-1.7325-1.3121-1.7325-2.4405 0-1.4334 1.1666-2.6 2.6-2.6 1.1284 0 2.0818.7272 2.4406 1.7334h8.9856c.3588-1.0062 1.3121-1.7334 2.4405-1.7334s2.0817.7272 2.4405 1.7334h5.0007l3.2197-3.2197c-.163-.3388-.2609-.7132-.2609-1.1136 0-1.4335 1.1665-2.6 2.6-2.6s2.6 1.1665 2.6 2.6c0 1.4334-1.1665 2.5999-2.6 2.5999-.4004 0-.7748-.0979-1.1137-.2608l-3.4736 3.4735c-.162.163-.383.254-.6127.254h-5.3595c-.3588 1.0061-1.3121 1.7333-2.4405 1.7333s-2.0817-.7272-2.4405-1.7333h-8.9865c-.2617.734-.8398 1.3121-1.5739 1.5738v12.4529c1.0062.3588 1.7334 1.3121 1.7334 2.4405 0 1.4335-1.1666 2.6-2.6 2.6-1.4335 0-2.6-1.1665-2.6-2.6 0-1.1284.7271-2.0817 1.7333-2.4405zm27.7342-19.2267c.4775 0 .8667-.3882.8667-.8666 0-.4784-.3892-.8667-.8667-.8667-.4775 0-.8667.3883-.8667.8667 0 .4784.3892.8666.8667.8666zm-13 5.2c.4775 0 .8667-.3883.8667-.8667 0-.4784-.3892-.8666-.8667-.8666-.4775 0-.8667.3882-.8667.8666 0 .4784.3892.8667.8667.8667zm-13.8667 17.333c.4776 0 .8667-.3883.8667-.8667 0-.4783-.3891-.8666-.8667-.8666-.4775 0-.8666.3883-.8666.8666 0 .4784.3891.8667.8666.8667zm0-17.333c.4776 0 .8667-.3883.8667-.8667 0-.4784-.3891-.8666-.8667-.8666-.4775 0-.8666.3882-.8666.8666 0 .4784.3891.8667.8666.8667z" fill="#00B2FF"/>
<path d="M18.2002 17.4925v-2.7594c0-.2305.091-.4507.254-.6127L28.8611 3.7136c-.1629-.33886-.2609-.71325-.2609-1.11364C28.6002 1.16651 29.7668 0 31.2002 0c1.1284 0 2.0818.72712 2.4406 1.7333h3.6261c.4784 0 .8667.3874.8667.86666v2.24116l3.2196 3.21961c.3389-.16293.7133-.26086 1.1137-.26086 1.4335 0 2.6 1.16651 2.6 2.59993 0 1.4335-1.1665 2.6-2.6 2.6s-2.6-1.1665-2.6-2.6c0-.40037.0979-.77476.2609-1.11362l-3.4736-3.47354c-.163-.16207-.254-.3822-.254-.61273v-1.7333h-2.7594c-.3588 1.00618-1.3122 1.7333-2.4406 1.7333-.4004 0-.7748-.09793-1.1136-.26086L19.9336 15.0919v2.4006c1.0062.3588 1.7333 1.3121 1.7333 2.4405 0 1.4334-1.1665 2.6-2.6 2.6s-2.6-1.1666-2.6-2.6c0-1.1284.7271-2.0817 1.7333-2.4405zm24.2667-6.226c.4775 0 .8667-.3883.8667-.8667 0-.47837-.3892-.86663-.8667-.86663-.4775 0-.8667.38826-.8667.86663 0 .4784.3892.8667.8667.8667zM31.2002 3.46661c.4776 0 .8667-.38826.8667-.86665 0-.4784-.3891-.86666-.8667-.86666-.4775 0-.8666.38826-.8666.86666 0 .47839.3891.86665.8666.86665zM19.0669 20.7997c.4775 0 .8667-.3883.8667-.8667 0-.4784-.3892-.8667-.8667-.8667-.4775 0-.8667.3883-.8667.8667 0 .4784.3892.8667.8667.8667z" fill="#00B2FF"/>
<path d="M20.8 24.2663c1.1284 0 2.0817.7271 2.4405 1.7333h10.2007l4.9461-4.946c.162-.163.383-.2539.6127-.2539h9.1745l2.0922-2.0921v-7.0823l-6.6864-6.68625c-.3388.16293-.7132.26086-1.1136.26086-1.4335 0-2.6-1.16651-2.6-2.59995C39.8667 1.16651 41.0332 0 42.4667 0c1.4334 0 2.6 1.16651 2.6 2.59996 0 .40039-.098.77478-.2609 1.11364l6.9403 6.9402c.1629.162.2539.3821.2539.6127v7.7998c0 .2306-.091.4507-.2539.6128l-2.6 2.5999c-.1621.163-.3831.254-.6128.254h-9.1745l-4.9461 4.9459c-.162.163-.383.254-.6127.254H23.2405c-.3588 1.0062-1.3121 1.7333-2.4405 1.7333-1.4335 0-2.6-1.1665-2.6-2.6 0-1.4334 1.1665-2.5999 2.6-2.5999zm21.6667-22.533c-.4776 0-.8667.38826-.8667.86666 0 .47839.3891.86665.8667.86665.4775 0 .8666-.38826.8666-.86665 0-.4784-.3891-.86666-.8666-.86666zM20.8 27.7329c.4775 0 .8667-.3883.8667-.8667 0-.4784-.3892-.8666-.8667-.8666-.4775 0-.8667.3882-.8667.8666 0 .4784.3892.8667.8667.8667zM2.59997 20.7997c.4004 0 .7748.0979 1.11366.2609L6.9333 17.841v-5.0006c-1.0062-.3588-1.73333-1.3121-1.73333-2.4405 0-1.43346 1.16653-2.59997 2.6-2.59997 1.43346 0 2.60003 1.16651 2.60003 2.59997 0 1.1284-.72717 2.0817-1.73337 2.4405v5.3594c0 .2305-.091.4506-.25393.6127L4.9391 22.286c.16294.3389.26087.7133.26087 1.1137 0 1.1283-.72714 2.0817-1.73334 2.4405v.6673l6.67937 6.6793c.163.162.254.3822.254.6127v1.0261c1.0062.3588 1.7333 1.3121 1.7333 2.4405s-.7271 2.0817-1.7333 2.4405v2.0531c1.0062.3588 1.7333 1.3121 1.7333 2.4405 0 1.4334-1.1665 2.5999-2.6 2.5999-1.43347 0-2.6-1.1665-2.6-2.5999 0-1.1284.72713-2.0817 1.73333-2.4405v-2.0531c-1.0062-.3588-1.73333-1.3121-1.73333-2.4405s.72713-2.0817 1.73333-2.4405v-.6673l-6.6794-6.6793c-.16293-.1621-.25393-.3822-.25393-.6127v-1.0261C.7271 25.4814-.00003 24.528-.00003 23.3997c0-1.4335 1.16653-2.6 2.6-2.6zm5.2-9.5332c.47753 0 .86666-.3882.86666-.8666 0-.47841-.38913-.86667-.86666-.86667-.47754 0-.86667.38826-.86667.86667 0 .4784.38913.8666.86667.8666zM9.5333 45.066c.4775 0 .8667-.3883.8667-.8667 0-.4784-.3892-.8666-.8667-.8666-.47753 0-.86667.3882-.86667.8666 0 .4784.38914.8667.86667.8667zm0-6.9332c.4775 0 .8667-.3883.8667-.8667 0-.4784-.3892-.8666-.8667-.8666-.47753 0-.86667.3882-.86667.8666 0 .4784.38914.8667.86667.8667zM2.59997 24.2663c.47753 0 .86666-.3882.86666-.8666 0-.4784-.38913-.8667-.86666-.8667-.47754 0-.86667.3883-.86667.8667 0 .4784.38913.8666.86667.8666z" fill="#00B2FF"/>
</symbol>
</symbol><symbol id="logo-mini">
<symbol id="logo-min" viewBox="0 0 38 38">
<path d="M23.4335 10.1332c.8246 0 1.5212.5313 1.7834 1.2666h6.5664c.2622-.7353.9589-1.2666 1.7835-1.2666 1.0475 0 1.9.8524 1.9 1.8999 0 1.0476-.8525 1.9-1.9 1.9-.8246 0-1.5213-.5313-1.7835-1.2666h-6.567c-.2622.7353-.9589 1.2666-1.7835 1.2666-1.0475 0-1.9-.8524-1.9-1.9 0-1.0475.8531-1.8999 1.9007-1.8999zm10.1333 2.5333c.349 0 .6333-.2838.6333-.6334 0-.3495-.2843-.6333-.6333-.6333s-.6333.2838-.6333.6333c0 .3496.2843.6334.6333.6334zm-10.1333 0c.3489 0 .6333-.2838.6333-.6334 0-.3495-.2844-.6333-.6333-.6333-.349 0-.6334.2838-.6334.6333 0 .3496.2844.6334.6334.6334z" fill="#00B2FF"/>
<path d="M18.3667 14.0497v-3.9165c0-.16845.0665-.32932.1856-.44775l2.5333-2.53329c.1185-.11906.28-.18556.4478-.18556h2.0165c.2622-.73529.9589-1.26665 1.7835-1.26665 1.0475 0 1.9.85245 1.9 1.89997s-.8525 1.89997-1.9 1.89997c-.8246 0-1.5213-.53136-1.7835-1.26665h-1.7543l-2.1622 2.16216v3.6543c.7353.2622 1.2667.9588 1.2667 1.7834 0 1.0475-.8525 1.9-1.9 1.9-1.0476 0-1.9-.8525-1.9-1.9 0-.8246.5313-1.5212 1.2666-1.7834zm6.9667-5.81646c.349 0 .6333-.28373.6333-.63332s-.2843-.63332-.6333-.63332-.6333.28373-.6333.63332.2843.63332.6333.63332zm-6.3333 8.23316c.3489 0 .6333-.2837.6333-.6333 0-.3496-.2844-.6333-.6333-.6333-.349 0-.6334.2837-.6334.6333 0 .3496.2844.6333.6334.6333zM6.96667 16.4664c.2926 0 .5662.0716.81383.1906l1.08617-1.0861V9.49984c0-.16846.0665-.32933.18556-.44776l6.33837-6.33829c-.119-.24763-.1906-.52123-.1906-.81382C15.2.85245 16.0525 0 17.1 0c1.0475 0 1.9.85245 1.9 1.89997 0 1.04751-.8525 1.89997-1.9 1.89997-.2926 0-.5662-.07157-.8138-.19063l-6.1529 6.15273v6.07106c0 .1684-.0665.3293-.18553.4477l-1.27174 1.2717c.11907.2477.19064.5213.19064.8139 0 1.0475-.85247 1.8999-1.9 1.8999-1.04754 0-1.9-.8524-1.9-1.8999 0-1.0476.85246-1.9 1.9-1.9zM17.1 2.53329c.349 0 .6333-.28373.6333-.63332 0-.3496-.2843-.63332-.6333-.63332s-.6333.28372-.6333.63332c0 .34959.2843.63332.6333.63332zM6.96667 18.9997c.34896 0 .63333-.2837.63333-.6333 0-.3496-.28437-.6334-.63333-.6334-.34897 0-.63334.2838-.63334.6334 0 .3496.28437.6333.63334.6333zM1.26696 8.98305V6.33323c0-.16847.0665-.32933.18557-.44776l4.43333-4.43326c.11843-.11907.27993-.18556.44777-.18556h3.2832C9.87903.53135 10.5757 0 11.4003 0c1.0475 0 1.9.85245 1.9 1.89997 0 1.04751-.8525 1.89997-1.9 1.89997-.8246 0-1.52127-.53136-1.78347-1.26665h-3.021l-4.0622 4.06213v2.38763c.7353.2622 1.26666.95885 1.26666 1.78345 0 1.0475-.85246 1.9-1.9 1.9-1.04753 0-1.9-.8525-1.9-1.9 0-.8246.53137-1.52125 1.26667-1.78345zM11.4003 2.53329c.349 0 .6333-.28373.6333-.63332 0-.3496-.2843-.63332-.6333-.63332s-.6333.28372-.6333.63332c0 .34959.2843.63332.6333.63332zM1.90029 11.3998c.34897 0 .63334-.2837.63334-.6333 0-.3496-.28437-.6333-.63334-.6333-.34896 0-.63333.2837-.63333.6333 0 .3496.28437.6333.63333.6333zM10.133 34.3166v-9.1002c-.73467-.2622-1.26604-.9589-1.26604-1.7835 0-1.0475.85247-1.8999 1.90004-1.8999.8246 0 1.5212.5313 1.7834 1.2666h6.5664c.2622-.7353.9589-1.2666 1.7835-1.2666.8246 0 1.5213.5313 1.7835 1.2666h3.6543l2.3528-2.3528c-.119-.2476-.1906-.5212-.1906-.8138 0-1.0475.8525-1.9 1.9-1.9 1.0475 0 1.9.8525 1.9 1.9 0 1.0475-.8525 1.9-1.9 1.9-.2926 0-.5662-.0716-.8138-.1907l-2.5384 2.5384c-.1185.1191-.28.1856-.4478.1856h-3.9165c-.2622.7352-.9589 1.2666-1.7835 1.2666-.8246 0-1.5213-.5314-1.7835-1.2666h-6.567a1.89835 1.89835 0 01-1.1501 1.1501v9.1002c.7353.2622 1.2666.9588 1.2666 1.7834 0 1.0475-.8524 1.9-1.9 1.9-1.04751 0-1.89997-.8525-1.89997-1.9 0-.8246.53136-1.5212 1.26667-1.7834zm20.2673-14.0503c.349 0 .6333-.2837.6333-.6333 0-.3496-.2843-.6333-.6333-.6333s-.6333.2837-.6333.6333c0 .3496.2843.6333.6333.6333zm-9.5 3.8c.349 0 .6333-.2838.6333-.6334 0-.3496-.2843-.6333-.6333-.6333s-.6333.2837-.6333.6333c0 .3496.2843.6334.6333.6334zM10.767 36.7327c.3489 0 .6333-.2837.6333-.6333 0-.3496-.2844-.6333-.6333-.6333-.349 0-.6334.2837-.6334.6333 0 .3496.2844.6333.6334.6333zm0-12.6664c.3489 0 .6333-.2838.6333-.6334 0-.3496-.2844-.6333-.6333-.6333-.349 0-.6334.2837-.6334.6333 0 .3496.2844.6334.6334.6334z" fill="#00B2FF"/>
<path d="M13.2998 12.783v-2.0165c0-.1685.0665-.3293.1855-.4478l7.6051-7.60491c-.1191-.24763-.1906-.52123-.1906-.81382C20.8998.85245 21.7522 0 22.7998 0c.8246 0 1.5212.53136 1.7834 1.26665h2.6499c.3496 0 .6333.28309.6333.63332v1.63777l2.3529 2.35279c.2476-.11906.5212-.19063.8138-.19063 1.0475 0 1.9.85246 1.9 1.89997 0 1.04752-.8525 1.89997-1.9 1.89997-1.0475 0-1.9-.85245-1.9-1.89997 0-.29259.0716-.56619.1906-.81382L26.7853 4.2477c-.119-.11844-.1855-.2793-.1855-.44776V2.53329h-2.0166c-.2622.73529-.9588 1.26665-1.7834 1.26665-.2926 0-.5662-.07157-.8139-.19063l-7.4195 7.41939v1.7543c.7353.2622 1.2667.9588 1.2667 1.7834 0 1.0475-.8525 1.9-1.9 1.9-1.0475 0-1.9-.8525-1.9-1.9 0-.8246.5314-1.5212 1.2667-1.7834zm17.7333-4.5498c.349 0 .6333-.28373.6333-.63333 0-.34959-.2843-.63332-.6333-.63332s-.6333.28373-.6333.63332c0 .3496.2843.63333.6333.63333zm-8.2333-5.69991c.3489 0 .6333-.28373.6333-.63332 0-.3496-.2844-.63332-.6333-.63332-.349 0-.6334.28372-.6334.63332 0 .34959.2844.63332.6334.63332zM13.9331 15.1997c.349 0 .6333-.2837.6333-.6333 0-.3496-.2843-.6333-.6333-.6333s-.6333.2837-.6333.6333c0 .3496.2843.6333.6333.6333z" fill="#00B2FF"/>
<path d="M15.2 17.733c.8246 0 1.5213.5314 1.7835 1.2667h7.4543l3.6144-3.6144c.1185-.1191.28-.1856.4478-.1856h6.7045l1.5288-1.5288V8.49539l-4.8861-4.88608c-.2477.11906-.5213.19063-.8139.19063-1.0475 0-1.9-.85246-1.9-1.89997C29.1333.85245 29.9858 0 31.0333 0c1.0476 0 1.9.85245 1.9 1.89997 0 .29259-.0715.56619-.1906.81382l5.0717 5.07165c.1191.11843.1856.27929.1856.44776v5.6999c0 .1685-.0665.3293-.1856.4478l-1.9 1.8999c-.1184.1191-.2799.1856-.4477.1856h-6.7045l-3.6144 3.6144c-.1185.119-.28.1855-.4478.1855h-7.7165c-.2622.7353-.9589 1.2667-1.7835 1.2667-1.0475 0-1.9-.8525-1.9-1.9 0-1.0475.8525-1.9 1.9-1.9zM31.0333 1.26665c-.3489 0-.6333.28372-.6333.63332 0 .34959.2844.63332.6333.63332.349 0 .6334-.28373.6334-.63332 0-.3496-.2844-.63332-.6334-.63332zM15.2 20.2663c.349 0 .6333-.2837.6333-.6333 0-.3496-.2843-.6333-.6333-.6333s-.6333.2837-.6333.6333c0 .3496.2843.6333.6333.6333zM1.90052 15.1998c.2926 0 .5662.0716.81383.1906l2.35284-2.3528V9.38336c-.7353-.2622-1.26667-.95885-1.26667-1.78344 0-1.04752.85247-1.89997 1.9-1.89997s1.9.85245 1.9 1.89997c0 .82459-.53137 1.52124-1.26667 1.78344v3.91644c0 .1685-.0665.3294-.18556.4478l-2.5384 2.5383c.11907.2477.19063.5213.19063.8139 0 .8245-.53137 1.5212-1.26667 1.7834v.4877l4.8811 4.881c.11907.1184.18557.2793.18557.4477v.7499c.7353.2622 1.26667.9588 1.26667 1.7834 0 .8246-.53137 1.5213-1.26667 1.7835v1.5003c.7353.2622 1.26667.9589 1.26667 1.7834 0 1.0476-.85247 1.9-1.9 1.9-1.04754 0-1.9-.8524-1.9-1.9 0-.8245.53136-1.5212 1.26666-1.7834v-1.5003c-.7353-.2622-1.26666-.9589-1.26666-1.7835 0-.8246.53136-1.5212 1.26666-1.7834v-.4877l-4.8811-4.881c-.11906-.1184-.18556-.2793-.18556-.4477v-.7499c-.7353-.2622-1.26667-.9589-1.26667-1.7834 0-1.0476.85247-1.9 1.9-1.9zm3.8-6.96656c.34897 0 .63333-.28373.63333-.63332s-.28436-.63332-.63333-.63332c-.34897 0-.63333.28373-.63333.63332s.28436.63332.63333.63332zM6.96719 32.9328c.34896 0 .63333-.2837.63333-.6333 0-.3496-.28437-.6333-.63333-.6333-.34897 0-.63334.2837-.63334.6333 0 .3496.28437.6333.63334.6333zm0-5.0666c.34896 0 .63333-.2837.63333-.6333 0-.3496-.28437-.6333-.63333-.6333-.34897 0-.63334.2837-.63334.6333 0 .3496.28437.6333.63334.6333zM1.90052 17.7331c.34897 0 .63333-.2837.63333-.6333 0-.3496-.28436-.6334-.63333-.6334-.34897 0-.63333.2838-.63333.6334 0 .3496.28436.6333.63333.6333z" fill="#00B2FF"/>
</symbol>
</symbol><symbol id="stopwatch" viewBox="0 0 29 35">
<path d="M3.18833 11.6622L1.70191 10.1904C0.894381 9.39114 0.894381 8.09017 1.70191 7.29042C2.50945 6.49094 3.82351 6.49094 4.63104 7.29042L6.21806 8.86162C7.87358 7.72007 9.7608 6.92993 11.7381 6.55075V4.51172H10.3571C9.97576 4.51172 9.66667 4.2057 9.66667 3.82812V2.05078C9.66667 0.919914 10.5958 0 11.7381 0H17.2619C18.4042 0 19.3333 0.919914 19.3333 2.05078V3.82812C19.3333 4.2057 19.0242 4.51172 18.6429 4.51172H17.2619V6.55075C19.2389 6.92966 21.1264 7.72007 22.7819 8.86162L24.369 7.29042C25.1762 6.49094 26.4903 6.49094 27.2981 7.29042C28.1056 8.0899 28.1056 9.39087 27.2981 10.1904L25.8117 11.6622C27.872 14.203 29 17.3678 29 20.6445C29 28.5601 22.4952 35 14.5 35C6.50477 35 -1.90735e-06 28.5601 -1.90735e-06 20.6445C-1.90735e-06 17.3678 1.12796 14.203 3.18833 11.6622ZM3.65467 8.25706C3.38522 7.99057 2.94747 7.99084 2.67829 8.25706C2.40938 8.52356 2.40938 8.95721 2.67829 9.22371L4.10509 10.636C4.4266 10.3092 4.76374 9.99756 5.11438 9.70249L3.65467 8.25706ZM17.9524 2.05078C17.9524 1.67374 17.6427 1.36719 17.2619 1.36719H11.7381C11.3573 1.36719 11.0476 1.67374 11.0476 2.05078V3.14453H17.9524V2.05078ZM13.119 4.51172V6.35368C14.0342 6.26877 14.9655 6.26877 15.881 6.35368V4.51172H13.119ZM26.3217 8.25706C26.0525 7.99084 25.6145 7.99057 25.3453 8.25706L23.8856 9.70249C24.2363 9.99756 24.5734 10.3092 24.8949 10.636L26.3217 9.22371C26.5906 8.95721 26.5906 8.52356 26.3217 8.25706ZM14.5 33.6328C21.7338 33.6328 27.619 27.8062 27.619 20.6445C27.619 17.4853 26.4606 14.4415 24.3574 12.0732C23.778 11.4208 23.1315 10.8248 22.4359 10.3009C20.6927 8.98766 18.6294 8.12328 16.4689 7.80098C15.8224 7.70512 15.16 7.65625 14.5 7.65625C13.84 7.65625 13.1776 7.70512 12.5313 7.80098C10.3706 8.12328 8.30729 8.98766 6.56384 10.3009C5.86851 10.8248 5.22199 11.4208 4.64264 12.0732C2.53939 14.4415 1.38095 17.4853 1.38095 20.6445C1.38095 27.8062 7.26618 33.6328 14.5 33.6328Z" fill=""/>
<path d="M14.5001 22.6953C13.3579 22.6953 12.4287 21.7754 12.4287 20.6445C12.4287 19.7535 13.0059 18.9935 13.8096 18.7112V13.8086C13.8096 13.431 14.1187 13.125 14.5001 13.125C14.8815 13.125 15.1906 13.431 15.1906 13.8086V18.7112C15.9943 18.9935 16.5715 19.7535 16.5715 20.6445C16.5715 21.7754 15.6424 22.6953 14.5001 22.6953ZM14.5001 19.9609C14.1193 19.9609 13.8096 20.2675 13.8096 20.6445C13.8096 21.0216 14.1193 21.3281 14.5001 21.3281C14.8809 21.3281 15.1906 21.0216 15.1906 20.6445C15.1906 20.2675 14.8809 19.9609 14.5001 19.9609Z" fill=""/>
<path d="M7.14458 13.4326C7.15536 13.42 7.16615 13.4075 7.17829 13.3957C7.19124 13.3826 7.20499 13.3709 7.21875 13.3591C8.43571 12.1671 9.93912 11.2851 11.5706 10.8082C11.9366 10.7014 12.3205 10.9081 12.4283 11.2702C12.5362 11.6323 12.3275 12.0125 11.9617 12.1193C10.7529 12.4729 9.62517 13.0838 8.66389 13.8996L9.12969 14.3608C9.39914 14.6278 9.39914 15.0607 9.12969 15.3277C8.99484 15.4612 8.81817 15.528 8.64124 15.528C8.46457 15.528 8.28791 15.4612 8.15305 15.3277L7.68617 14.8655C6.43684 16.3037 5.69485 18.0741 5.55028 19.9609H6.21432C6.5957 19.9609 6.9048 20.2672 6.9048 20.6445C6.9048 21.0221 6.5957 21.3281 6.21432 21.3281H5.55028C5.69485 23.2152 6.43684 24.9853 7.68617 26.4235L8.15305 25.9613C8.42277 25.6945 8.85998 25.6945 9.12969 25.9613C9.39941 26.2283 9.39941 26.6612 9.12969 26.9282L8.66282 27.3904C10.1155 28.6273 11.9037 29.3619 13.8096 29.5053V28.8476C13.8096 28.47 14.1187 28.164 14.5 28.164C14.8814 28.164 15.1905 28.47 15.1905 28.8476V29.505C17.0963 29.3619 18.8846 28.6273 20.3373 27.3904L19.8704 26.9282C19.6007 26.6612 19.6007 26.2283 19.8704 25.9613C20.1401 25.6945 20.5773 25.6945 20.847 25.9613L21.3139 26.4235C22.5632 24.9853 23.3052 23.2149 23.4498 21.3281H22.7857C22.4044 21.3281 22.0953 21.0221 22.0953 20.6445C22.0953 20.2669 22.4044 19.9609 22.7857 19.9609H23.4498C23.3052 18.0741 22.5632 16.3037 21.3139 14.8655L20.847 15.3277C20.7122 15.4612 20.5355 15.528 20.3588 15.528C20.1819 15.528 20.0052 15.4612 19.8704 15.3277C19.6009 15.0607 19.6009 14.6278 19.8704 14.3608L20.3362 13.8996C19.3749 13.0836 18.2472 12.4729 17.0383 12.1193C16.6726 12.0125 16.4638 11.6323 16.5717 11.2702C16.6796 10.9081 17.0632 10.7017 17.4294 10.8082C19.0607 11.2849 20.5635 12.1666 21.7802 13.3581C21.7945 13.3701 21.8086 13.3824 21.8218 13.3955C21.8336 13.4072 21.8442 13.4195 21.855 13.4318C23.7913 15.3667 24.8572 17.9259 24.8572 20.6445C24.8572 23.3628 23.7913 25.9218 21.8555 27.8564C21.8447 27.869 21.8339 27.8815 21.8218 27.8933C21.8099 27.9053 21.7975 27.9157 21.7851 27.9264C19.8307 29.8431 17.246 30.8984 14.5 30.8984C11.7543 30.8984 9.16961 29.8434 7.21551 27.9269C7.20284 27.916 7.19016 27.9053 7.17829 27.8933C7.16642 27.8818 7.1559 27.8692 7.14512 27.8572C5.20882 25.9223 4.14289 23.3631 4.14289 20.6445C4.14289 17.9261 5.20882 15.3672 7.14458 13.4326Z" fill=""/>
<path d="M14.5 11.7578C14.1188 11.7578 13.8095 11.4515 13.8095 11.0742C13.8095 10.6969 14.1188 10.3906 14.5 10.3906C14.8811 10.3906 15.1904 10.6969 15.1904 11.0742C15.1904 11.4515 14.8811 11.7578 14.5 11.7578Z" fill=""/>
</symbol><symbol id="tag" viewBox="0 0 35 35">
<path d="M11.0707 8.58469C10.9436 8.45752 10.7672 8.38437 10.5874 8.38437C10.4076 8.38437 10.2312 8.45752 10.1041 8.58469C9.97702 8.71186 9.90381 8.88825 9.90381 9.06807C9.90381 9.24788 9.97695 9.42427 10.1041 9.55144C10.2312 9.67868 10.4076 9.75176 10.5874 9.75176C10.7672 9.75176 10.9436 9.67861 11.0707 9.55144C11.1978 9.42427 11.271 9.24788 11.271 9.06807C11.271 8.88825 11.1979 8.71186 11.0707 8.58469Z" fill=""/>
<path d="M34.8 2.85866L33.9548 2.01231L34.7998 1.16719C35.0667 0.900207 35.0667 0.46729 34.7998 0.200238C34.5328 -0.0667459 34.1 -0.0667459 33.833 0.200238L32.9885 1.04481L32.1556 0.210835C32.0275 0.0825735 31.8537 0.0103751 31.6724 0.0103067L20.1023 0.00387998C20.1016 0.00387998 20.101 0.00387998 20.1004 0.00387998C19.1868 0.00387998 18.3278 0.359676 17.6818 1.00584L11.9081 6.78034C11.6412 7.04732 11.6412 7.48024 11.9081 7.74729C12.1751 8.01428 12.6079 8.01428 12.8749 7.74729L18.6486 1.97279C19.0364 1.58486 19.5519 1.37134 20.1004 1.37134C20.1008 1.37134 20.1012 1.37134 20.1016 1.37134L31.3884 1.37763L32.0219 2.01183L29.4854 4.54862C28.4099 3.9043 26.9919 4.0448 26.066 4.97066C25.5371 5.49971 25.2459 6.20303 25.2459 6.95113C25.2459 7.69923 25.5371 8.40255 26.066 8.93159C26.612 9.47759 27.3291 9.75059 28.0463 9.75059C28.7634 9.75059 29.4805 9.47759 30.0264 8.93159C30.9508 8.00703 31.0922 6.59164 30.4514 5.51646L32.9881 2.97933L33.6327 3.62481L33.6265 14.8981C33.6261 15.4461 33.4126 15.9614 33.025 16.349L16.3438 33.0327C15.956 33.4205 15.4403 33.6341 14.892 33.6341C14.3436 33.6341 13.8279 33.4205 13.4401 33.0327L1.96861 21.5593C1.58074 21.1715 1.36719 20.6558 1.36719 20.1073C1.36719 19.5588 1.58074 19.0431 1.96861 18.6553L9.33734 11.2854C9.60429 11.0184 9.60429 10.5855 9.33734 10.3185C9.07033 10.0515 8.63762 10.0515 8.37054 10.3185L1.00181 17.6883C0.355811 18.3344 0 19.1935 0 20.1073C0 21.0211 0.355811 21.8802 1.00181 22.5263L12.4733 33.9996C13.1402 34.6665 14.016 35 14.892 35C15.7679 35 16.6437 34.6665 17.3106 33.9996L33.9918 17.3158C34.6373 16.6702 34.993 15.8118 34.9936 14.8987L35 3.34217C35.0001 3.16085 34.9282 2.98692 34.8 2.85866ZM29.0596 7.96457C28.7889 8.23532 28.429 8.38443 28.0463 8.38443C27.6634 8.38443 27.3036 8.23532 27.0329 7.96457C26.474 7.40572 26.474 6.49633 27.0329 5.93748C27.3123 5.65798 27.6792 5.51831 28.0463 5.51831C28.1845 5.51831 28.3227 5.5382 28.4562 5.57786L27.6672 6.36698C27.4003 6.63396 27.4003 7.06688 27.6672 7.33393C27.8007 7.46746 27.9757 7.53419 28.1506 7.53419C28.3255 7.53419 28.5005 7.46746 28.634 7.33393L29.4208 6.547C29.5629 7.03372 29.4427 7.5815 29.0596 7.96457Z" fill=""/>
<path d="M29.2004 13.7645L21.2339 5.79669C20.1785 4.7412 18.4613 4.74134 17.4061 5.79669L4.79918 18.4056C4.28792 18.9168 4.00635 19.5966 4.00635 20.3197C4.00635 21.0428 4.28785 21.7227 4.79911 22.2339L12.7657 30.2016C13.277 30.7129 13.9566 30.9946 14.6796 30.9946C15.4025 30.9946 16.0823 30.713 16.5934 30.2017L29.2004 17.5928C29.7117 17.0815 29.9932 16.4017 29.9932 15.6786C29.9932 14.9556 29.7117 14.2758 29.2004 13.7645ZM28.2336 16.6258L15.6267 29.2349C15.3738 29.4878 15.0374 29.6272 14.6796 29.6272C14.3219 29.6272 13.9855 29.4878 13.7326 29.2348L5.76592 21.267C5.51292 21.014 5.3736 20.6776 5.3736 20.3198C5.37354 19.9619 5.51292 19.6255 5.76592 19.3725L18.3729 6.76365C18.634 6.50247 18.977 6.37189 19.32 6.37189C19.663 6.37189 20.006 6.50254 20.2671 6.76365L28.2336 14.7314C28.4866 14.9844 28.6259 15.3208 28.6259 15.6786C28.6259 16.0364 28.4866 16.3729 28.2336 16.6258Z" fill=""/>
<path d="M22.2904 13.677C22.5574 13.41 22.5574 12.9771 22.2904 12.71C22.0234 12.443 21.5907 12.443 21.3236 12.71L20.93 13.1037C19.879 12.4544 18.5304 12.5415 17.6779 13.394C17.1808 13.8912 16.9265 14.5662 16.9618 15.2949C16.9959 15.9985 17.2989 16.6702 17.8148 17.1862C17.8149 17.1863 17.8149 17.1863 17.8149 17.1864C18.3648 17.7365 18.4261 18.5701 17.9517 19.0446C17.4771 19.5191 16.6435 19.4577 16.0935 18.9077C15.5435 18.3575 15.4821 17.5238 15.9566 17.0492C16.2235 16.7822 16.2235 16.3493 15.9566 16.0823C15.6896 15.8153 15.2569 15.8153 14.9898 16.0823C14.1373 16.9348 14.0503 18.2836 14.6995 19.3349L14.2324 19.8019C13.9655 20.0689 13.9655 20.5018 14.2324 20.7689C14.3663 20.9025 14.5412 20.9693 14.7161 20.9693C14.8911 20.9693 15.066 20.9025 15.1995 20.769L15.6668 20.3016C16.1261 20.5853 16.6419 20.729 17.1486 20.729C17.8013 20.7289 18.4387 20.4915 18.9186 20.0115C19.9259 19.004 19.8647 17.3033 18.7822 16.22C18.782 16.2198 18.7819 16.2196 18.7817 16.2194C18.5065 15.9441 18.3451 15.5923 18.3275 15.2287C18.3112 14.8901 18.4238 14.582 18.6448 14.361C19.1192 13.8864 19.9526 13.9478 20.5027 14.4977C20.5028 14.4978 20.5028 14.4979 20.5028 14.4979C20.5029 14.498 20.503 14.498 20.503 14.498C21.0529 15.0482 21.1142 15.8817 20.6397 16.3563C20.3727 16.6233 20.3727 17.0562 20.6397 17.3232C20.7732 17.4568 20.9481 17.5235 21.1231 17.5235C21.298 17.5235 21.4729 17.4568 21.6064 17.3232C22.4589 16.4706 22.546 15.1218 21.8968 14.0706L22.2904 13.677Z" fill=""/>
<path d="M15.3719 25.0116L11.8609 21.5C11.5939 21.2332 11.1612 21.2331 10.8941 21.5C10.6271 21.767 10.6271 22.1999 10.8941 22.467L14.4051 25.9786C14.5386 26.112 14.7136 26.1788 14.8885 26.1788C15.0634 26.1788 15.2384 26.112 15.3719 25.9786C15.6388 25.7116 15.6388 25.2787 15.3719 25.0116Z" fill=""/>
<path d="M9.98812 19.6269C9.86104 19.4998 9.68528 19.4266 9.50488 19.4266C9.3251 19.4266 9.14941 19.4998 9.02158 19.6269C8.89443 19.7541 8.82129 19.9305 8.82129 20.111C8.82129 20.2908 8.89437 20.4672 9.02158 20.5944C9.14873 20.7215 9.3251 20.7947 9.50488 20.7947C9.68535 20.7947 9.86104 20.7215 9.98812 20.5944C10.1159 20.4665 10.1891 20.2908 10.1891 20.111C10.1891 19.9305 10.1159 19.7548 9.98812 19.6269Z" fill=""/>
</symbol></svg>